<svg xmlns="http://www.w3.org/2000/svg" width="16" height="12.8" viewBox="0 0 16 12.8">
  <path id="Icon_awesome-chalkboard-teacher" data-name="Icon awesome-chalkboard-teacher" d="M5.2,8.8a.572.572,0,0,0-.176.027A3.3,3.3,0,0,1,4,9a3.3,3.3,0,0,1-1.024-.173A.57.57,0,0,0,2.8,8.8,2.8,2.8,0,0,0,0,11.615,1.2,1.2,0,0,0,1.2,12.8H6.8A1.2,1.2,0,0,0,8,11.615,2.8,2.8,0,0,0,5.2,8.8ZM4,8A2.4,2.4,0,1,0,1.6,5.6,2.4,2.4,0,0,0,4,8ZM14.8,0H5.2A1.222,1.222,0,0,0,4,1.24V2.4a3.164,3.164,0,0,1,1.6.445V1.6h8.8V8.8H12.8V7.2H9.6V8.8H7.694a3.186,3.186,0,0,1,.992,1.6H14.8A1.222,1.222,0,0,0,16,9.16V1.24A1.222,1.222,0,0,0,14.8,0Z" transform="translate(0)" fill="#fff"/>
</svg>
