<svg xmlns="http://www.w3.org/2000/svg" width="16" height="20.8" viewBox="0 0 16 20.8">
  <path id="Icon_awesome-clipboard" data-name="Icon awesome-clipboard" d="M16,4.55v14.3a1.975,1.975,0,0,1-2,1.95H2a1.975,1.975,0,0,1-2-1.95V4.55A1.975,1.975,0,0,1,2,2.6H5.333a2.668,2.668,0,0,1,5.333,0H14A1.975,1.975,0,0,1,16,4.55ZM8,1.625A.975.975,0,1,0,9,2.6a.988.988,0,0,0-1-.975m4,4.631V5.444a.247.247,0,0,0-.25-.244H4.25A.247.247,0,0,0,4,5.444v.813a.247.247,0,0,0,.25.244h7.5A.247.247,0,0,0,12,6.256Z" fill="#fff"/>
</svg>
